Coordinates
version=1
nRows=22
nColumns=24
inDegrees=yes

Units are S.I. units (second, meters, Newtons, ...)
Angles are in degrees.

endheader
time	pelvis_tilt	pelvis_list	pelvis_rotation	pelvis_tx	pelvis_ty	pelvis_tz	hip_flexion_r	hip_adduction_r	hip_rotation_r	knee_angle_r	ankle_angle_r	subtalar_angle_r	mtp_angle_r	hip_flexion_l	hip_adduction_l	hip_rotation_l	knee_angle_l	ankle_angle_l	subtalar_angle_l	mtp_angle_l	lumbar_extension	lumbar_bending	lumbar_rotation
      3.79000000	     -5.69572559	     10.15898725	      2.29624895	     -0.69343230	     -0.02033957	     -0.17117037	     30.44931245	    -10.82392029	     -0.24694215	    -67.99935645	    -10.60115654	      2.30477361	     23.36189663	     10.38936399	     19.47393449	     -0.40050872	    -13.25441378	      7.08808950	      2.28573693	    -11.76117167	      6.38594918	    -12.10399075	     -2.53583716
      3.79500000	     -5.57646815	      9.94843647	      2.35771105	     -0.68771935	     -0.01978633	     -0.17157069	     31.00653687	    -10.54720265	     -0.46489047	    -67.23330590	     -9.95056737	      2.06355336	     23.13752314	      9.53625556	     19.30213342	      0.06161400	    -12.85150525	      7.20534272	      2.20241685	    -11.66594411	      6.17501068	    -11.88723716	     -2.72024588
      3.80000000	     -5.48173414	      9.74417298	      2.42613925	     -0.68202727	     -0.01931978	     -0.17198010	     31.57233250	    -10.28851818	     -0.69568133	    -66.41140597	     -9.32410364	      1.84403037	     22.83932020	      8.72659131	     19.12972794	      0.48146631	    -12.46722518	      7.31466493	      2.14635679	    -11.51252175	      5.98460055	    -11.67456746	     -2.90916624
      3.80500000	     -5.36616002	      9.57184724	      2.46464621	     -0.67634404	     -0.01893642	     -0.17233659	     32.11367610	    -10.05310820	     -0.91214003	    -65.57172300	     -8.63477319	      1.68140285	     22.21814508	      7.88291971	     18.98219828	      0.94621337	    -12.03695555	      7.33553709	      1.97215699	    -11.11631984	      5.77856035	    -11.49937163	     -3.05933408
      3.81000000	     -5.30199443	      9.35406342	      2.55191351	     -0.67067015	     -0.01860172	     -0.17275123	     32.65409074	     -9.80336638	     -1.18641455	    -64.60935686	     -8.07320071	      1.49170857	     21.83172030	      7.13982082	     18.78145145	      1.28061257	    -11.69379691	      7.44519660	      1.98233648	    -10.75734257	      5.61958292	    -11.28103552	     -3.27432500
      3.81500000	     -5.28192086	      9.12121596	      2.65888965	     -0.66501953	     -0.01833663	     -0.17321747	     33.20756274	     -9.55730166	     -1.47505963	    -63.55607323	     -7.59387834	      1.31886990	     21.56770475	      6.47478734	     18.56825874	      1.56315253	    -11.40438074	      7.60409940	      2.03197830	    -10.56228110	      5.50456149	    -11.04412978	     -3.52424522
      3.82000000	     -5.18945457	      8.91861979	      2.74323757	     -0.65934068	     -0.01808445	     -0.17360749	     33.66234359	     -9.34037597	     -1.78008576	    -62.46531451	     -7.09005740	      1.13986754	     21.07701477	      5.70369348	     18.37446799	      1.92837479	    -11.06358445	      7.73643282	      2.02317420	    -10.28459075	      5.31882019	    -10.84416498	     -3.73028764
      3.82500000	     -5.15859552	      8.69448400	      2.81887994	     -0.65370105	     -0.01792770	     -0.17398309	     34.15670146	     -9.08673697	     -2.04793579	    -61.29185408	     -6.61754886	      1.02341094	     20.65508677	      5.04781342	     18.16038968	      2.23059214	    -10.79143881	      7.86994697	      1.96690849	    -10.05255888	      5.19476749	    -10.62643232	     -3.95971610
      3.83000000	     -5.22859788	      8.52407921	      2.81981045	     -0.64803001	     -0.01799551	     -0.17425327	     34.78629857	     -8.84291224	     -2.19564034	    -60.08927006	     -6.22456637	      0.94277410	     20.49432447	      4.51416917	     17.99274930	      2.44418773	    -10.52418127	      8.08712977	      1.98476243	     -9.95272736	      5.20573080	    -10.44761099	     -4.01670364
      3.83500000	     -5.03999466	      8.30581151	      2.88475086	     -0.64236894	     -0.01778801	     -0.17458296	     35.03357199	     -8.60629015	     -2.52882880	    -58.80923505	     -5.66066650	      0.89118420	     19.59795887	      3.64054227	     17.78005491	      2.95501820	    -10.16354861	      8.09045846	      1.64477140	     -9.59000812	      4.90591655	    -10.22948915	     -4.27416927
      3.84000000	     -5.14630432	      8.12382338	      2.90032015	     -0.63672509	     -0.01795803	     -0.17482117	     35.63524070	     -8.36561209	     -2.70401058	    -57.46408234	     -5.33833864	      0.89098341	     19.47136119	      3.18806879	     17.60290003	      3.11307197	     -9.95944620	      8.29850849	      1.61777726	     -9.50739260	      4.94845067	    -10.05755087	     -4.41782233
      3.84500000	     -4.99881217	      7.90358999	      2.96611850	     -0.63109030	     -0.01785567	     -0.17509074	     35.86012581	     -8.12100376	     -3.00545650	    -56.02549859	     -4.87931811	      0.90470846	     18.83721133	      2.39469070	     17.38193036	      3.62781032	     -9.65814581	      8.31265601	      1.24746157	     -9.27545130	      4.68666968	     -9.84410511	     -4.66443001
      3.85000000	     -5.09904207	      7.72010940	      3.00013643	     -0.62549043	     -0.01808363	     -0.17529809	     36.37566841	     -7.88221599	     -3.17584675	    -54.53788731	     -4.59120134	      0.97084528	     18.69781954	      1.96960416	     17.20170044	      3.81149258	     -9.51508809	      8.51899882	      1.17844814	     -9.20105142	      4.70850505	     -9.67148777	     -4.80955989
      3.85500000	     -5.01384390	      7.51316291	      3.07562932	     -0.61990747	     -0.01814016	     -0.17550345	     36.61379386	     -7.66568471	     -3.48942846	    -52.96350845	     -4.24177775	      1.02614033	     18.39911160	      1.30854100	     16.98655641	      4.17558018	     -9.32685407	      8.67635467	      0.97189543	     -9.13648963	      4.50472693	     -9.48986100	     -5.10081065
      3.86000000	     -4.98696315	      7.33253001	      3.09182037	     -0.61431746	     -0.01830597	     -0.17560465	     36.90862202	     -7.42060149	     -3.68261886	    -51.35163482	     -3.90890727	      1.17707924	     18.10064374	      0.71828198	     16.79439606	      4.50110505	     -9.13013913	      8.79510324	      0.71731324	     -9.10548796	      4.37311371	     -9.33119134	     -5.27835475
      3.86500000	     -5.09025178	      7.19056809	      3.07242965	     -0.60876957	     -0.01867742	     -0.17564221	     37.34758783	     -7.17402943	     -3.75670050	    -49.70490576	     -3.66689823	      1.34162392	     17.95632857	      0.32670444	     16.64501762	      4.64585438	     -9.01692206	      8.99178497	      0.61027291	     -9.07266367	      4.39072792	     -9.21009212	     -5.37127209
      3.87000000	     -5.12883715	      7.02449387	      3.10018256	     -0.60323736	     -0.01898177	     -0.17570824	     37.64799451	     -6.94209979	     -3.91212353	    -47.97648056	     -3.40612750	      1.53571554	     17.79765175	     -0.13443203	     16.46321009	      4.83989499	     -8.91726241	      9.19714391	      0.51433990	     -9.04915574	      4.31938647	     -9.07278822	     -5.54966165
      3.87500000	     -5.03253125	      6.86890985	      3.16577427	     -0.59772698	     -0.01917610	     -0.17581655	     37.74221315	     -6.76177907	     -4.16017053	    -46.18774916	     -3.06844163	      1.73073837	     17.57865341	     -0.75076947	     16.28413492	      5.08144048	     -8.81605212	      9.38825623	      0.40571627	     -9.05477220	      4.08320489	     -8.95116865	     -5.82865942
      3.88000000	     -5.05135816	      6.73362761	      3.18791377	     -0.59223219	     -0.01952568	     -0.17583059	     37.95422418	     -6.55292997	     -4.28763864	    -44.37054395	     -2.79915165	      1.96789418	     17.39854800	     -1.21375825	     16.12318458	      5.21462950	     -8.74360571	      9.59695214	      0.37427110	     -9.04738916	      3.98152403	     -8.84959723	     -6.01567610
      3.88500000	     -5.12602179	      6.61342983	      3.20629181	     -0.58676525	     -0.01995472	     -0.17584409	     38.20116413	     -6.35069230	     -4.35675213	    -42.51755126	     -2.58507603	      2.22927621	     17.26770526	     -1.59193078	     15.97727426	      5.29011381	     -8.70861003	      9.82260575	      0.41996037	     -9.01381470	      3.93489477	     -8.75936490	     -6.17413276
      3.89000000	     -5.16220669	      6.48844717	      3.24667040	     -0.58130897	     -0.02036082	     -0.17583404	     38.35619913	     -6.15995758	     -4.46524897	    -40.61570184	     -2.33574165	      2.49490857	     17.15702682	     -2.00491631	     15.81246586	      5.32435675	     -8.68736306	     10.07980785	      0.56580231	     -8.96068895	      3.83298905	     -8.67832877	     -6.38710564
      3.89500000	     -5.08297510	      6.37334426	      3.31041848	     -0.57583907	     -0.02066257	     -0.17586517	     38.32834975	     -6.00804869	     -4.64991338	    -38.66612281	     -2.02523204	      2.72983829	     17.04190305	     -2.52562930	     15.64108395	      5.21476464	     -8.71018749	     10.41831670	      0.95799907	     -8.87833950	      3.60396636	     -8.60075843	     -6.66600825
